<svg width="96" height="96" viewBox="0 0 96 96" fill="none" xmlns="http://www.w3.org/2000/svg">
<path d="M12 42C12 37.5817 15.5817 34 20 34H80C84.4183 34 88 37.5817 88 42V78C88 82.4183 84.4183 86 80 86H20C15.5817 86 12 82.4183 12 78V42Z" fill="#021024" fill-opacity="0.1"/>
<path d="M12 40C12 36.6863 14.6863 34 18 34H78C81.3137 34 84 36.6863 84 40V76C84 79.3137 81.3137 82 78 82H18C14.6863 82 12 79.3137 12 76V40Z" fill="#B75E2C"/>
<path fill-rule="evenodd" clip-rule="evenodd" d="M18 32H78C82.4183 32 86 35.5817 86 40V76C86 80.4183 82.4183 84 78 84H18C13.5817 84 10 80.4183 10 76V40C10 35.5817 13.5817 32 18 32ZM18 34C14.6863 34 12 36.6863 12 40V76C12 79.3137 14.6863 82 18 82H78C81.3137 82 84 79.3137 84 76V40C84 36.6863 81.3137 34 78 34H18Z" fill="#6D340B"/>
<path fill-rule="evenodd" clip-rule="evenodd" d="M16 43C16 42.4477 16.4477 42 17 42H79C79.5523 42 80 42.4477 80 43C80 43.5523 79.5523 44 79 44H17C16.4477 44 16 43.5523 16 43Z" fill="#DD7940"/>
<path fill-rule="evenodd" clip-rule="evenodd" d="M16 51C16 50.4477 16.4477 50 17 50H79C79.5523 50 80 50.4477 80 51C80 51.5523 79.5523 52 79 52H17C16.4477 52 16 51.5523 16 51Z" fill="#DD7940"/>
<path fill-rule="evenodd" clip-rule="evenodd" d="M16 59C16 58.4477 16.4477 58 17 58H79C79.5523 58 80 58.4477 80 59C80 59.5523 79.5523 60 79 60H17C16.4477 60 16 59.5523 16 59Z" fill="#DD7940"/>
<path fill-rule="evenodd" clip-rule="evenodd" d="M15 57C15 56.4477 15.4477 56 16 56H80C80.5523 56 81 56.4477 81 57C81 57.5523 80.5523 58 80 58H16C15.4477 58 15 57.5523 15 57Z" fill="#6D340B"/>
<path fill-rule="evenodd" clip-rule="evenodd" d="M15 49C15 48.4477 15.4477 48 16 48H80C80.5523 48 81 48.4477 81 49C81 49.5523 80.5523 50 80 50H16C15.4477 50 15 49.5523 15 49Z" fill="#6D340B"/>
<path fill-rule="evenodd" clip-rule="evenodd" d="M15 41C15 40.4477 15.4477 40 16 40H80C80.5523 40 81 40.4477 81 41C81 41.5523 80.5523 42 80 42H16C15.4477 42 15 41.5523 15 41Z" fill="#6D340B"/>
<path fill-rule="evenodd" clip-rule="evenodd" d="M14 37C14.5523 37 15 37.4477 15 38V78C15 78.5523 14.5523 79 14 79C13.4477 79 13 78.5523 13 78V38C13 37.4477 13.4477 37 14 37Z" fill="#DD7940"/>
<path d="M66 72C66 72.5523 65.5523 73 65 73C64.4477 73 64 72.5523 64 72C64 71.4477 64.4477 71 65 71C65.5523 71 66 71.4477 66 72Z" fill="#9D5227"/>
<path d="M70 71C70 71.5523 69.5523 72 69 72C68.4477 72 68 71.5523 68 71C68 70.4477 68.4477 70 69 70C69.5523 70 70 70.4477 70 71Z" fill="#9D5227"/>
<path d="M71 74.5C71 75.3284 70.3284 76 69.5 76C68.6716 76 68 75.3284 68 74.5C68 73.6716 68.6716 73 69.5 73C70.3284 73 71 73.6716 71 74.5Z" fill="#9D5227"/>
<path d="M81 76.5C81 77.3284 80.3284 78 79.5 78C78.6716 78 78 77.3284 78 76.5C78 75.6716 78.6716 75 79.5 75C80.3284 75 81 75.6716 81 76.5Z" fill="#9D5227"/>
<path d="M67 76.5C67 77.3284 66.3284 78 65.5 78C64.6716 78 64 77.3284 64 76.5C64 75.6716 64.6716 75 65.5 75C66.3284 75 67 75.6716 67 76.5Z" fill="#9D5227"/>
<path d="M61 75C61 75.5523 60.5523 76 60 76C59.4477 76 59 75.5523 59 75C59 74.4477 59.4477 74 60 74C60.5523 74 61 74.4477 61 75Z" fill="#9D5227"/>
<path d="M57 78C57 78.5523 56.5523 79 56 79C55.4477 79 55 78.5523 55 78C55 77.4477 55.4477 77 56 77C56.5523 77 57 77.4477 57 78Z" fill="#9D5227"/>
<path d="M81 66C81 66.5523 80.5523 67 80 67C79.4477 67 79 66.5523 79 66C79 65.4477 79.4477 65 80 65C80.5523 65 81 65.4477 81 66Z" fill="#9D5227"/>
<path d="M73 67C73 67.5523 72.5523 68 72 68C71.4477 68 71 67.5523 71 67C71 66.4477 71.4477 66 72 66C72.5523 66 73 66.4477 73 67Z" fill="#9D5227"/>
<path d="M69 79C69 79.5523 68.5523 80 68 80C67.4477 80 67 79.5523 67 79C67 78.4477 67.4477 78 68 78C68.5523 78 69 78.4477 69 79Z" fill="#9D5227"/>
<path d="M62 79C62 79.5523 61.5523 80 61 80C60.4477 80 60 79.5523 60 79C60 78.4477 60.4477 78 61 78C61.5523 78 62 78.4477 62 79Z" fill="#9D5227"/>
<path d="M74 72C74 72.5523 73.5523 73 73 73C72.4477 73 72 72.5523 72 72C72 71.4477 72.4477 71 73 71C73.5523 71 74 71.4477 74 72Z" fill="#9D5227"/>
<path d="M77 74C77 74.5523 76.5523 75 76 75C75.4477 75 75 74.5523 75 74C75 73.4477 75.4477 73 76 73C76.5523 73 77 73.4477 77 74Z" fill="#9D5227"/>
<path d="M82 71C82 71.5523 81.5523 72 81 72C80.4477 72 80 71.5523 80 71C80 70.4477 80.4477 70 81 70C81.5523 70 82 70.4477 82 71Z" fill="#9D5227"/>
<path d="M78 69.5C78 70.3284 77.3284 71 76.5 71C75.6716 71 75 70.3284 75 69.5C75 68.6716 75.6716 68 76.5 68C77.3284 68 78 68.6716 78 69.5Z" fill="#9D5227"/>
<path d="M73 77C73 77.5523 72.5523 78 72 78C71.4477 78 71 77.5523 71 77C71 76.4477 71.4477 76 72 76C72.5523 76 73 76.4477 73 77Z" fill="#9D5227"/>
<path d="M76 79C76 79.5523 75.5523 80 75 80C74.4477 80 74 79.5523 74 79C74 78.4477 74.4477 78 75 78C75.5523 78 76 78.4477 76 79Z" fill="#9D5227"/>
<path d="M21 18C21 15.7909 22.7909 14 25 14H71C73.2091 14 75 15.7909 75 18V40H21V18Z" fill="#FF7070"/>
<path fill-rule="evenodd" clip-rule="evenodd" d="M77 40C77 41.1046 76.1046 42 75 42H21C19.8954 42 19 41.1046 19 40V18C19 14.6863 21.6863 12 25 12H71C74.3137 12 77 14.6863 77 18V40ZM25 14C22.7909 14 21 15.7909 21 18V40H75V18C75 15.7909 73.2091 14 71 14H25Z" fill="#AC3939"/>
<path d="M19 26C19 23.7909 20.7909 22 23 22H73C75.2091 22 77 23.7909 77 26V48H19V26Z" fill="#FFCF23"/>
<path fill-rule="evenodd" clip-rule="evenodd" d="M79 48C79 49.1046 78.1046 50 77 50H19C17.8954 50 17 49.1046 17 48V26C17 22.6863 19.6863 20 23 20H73C76.3137 20 79 22.6863 79 26V48ZM23 22C20.7909 22 19 23.7909 19 26V48H77V26C77 23.7909 75.2091 22 73 22H23Z" fill="#B96F00"/>
<path d="M23 40C23 38.8954 23.8954 38 25 38H71C72.1046 38 73 38.8954 73 40V44C73 45.1046 72.1046 46 71 46H25C23.8954 46 23 45.1046 23 44V40Z" fill="#F9B300"/>
<path d="M23 28C23 26.8954 23.8954 26 25 26H31C32.1046 26 33 26.8954 33 28V32C33 33.1046 32.1046 34 31 34H25C23.8954 34 23 33.1046 23 32V28Z" fill="#F9B300"/>
<path fill-rule="evenodd" clip-rule="evenodd" d="M23 23C23 22.4477 23.4477 22 24 22H72C72.5523 22 73 22.4477 73 23C73 23.5523 72.5523 24 72 24H24C23.4477 24 23 23.5523 23 23Z" fill="#FFE898"/>
<path fill-rule="evenodd" clip-rule="evenodd" d="M25 15C25 14.4477 25.4477 14 26 14H70C70.5523 14 71 14.4477 71 15C71 15.5523 70.5523 16 70 16H26C25.4477 16 25 15.5523 25 15Z" fill="#FFA4A4"/>
</svg>
