<svg width="72" height="36" viewBox="0 0 72 36" fill="none" xmlns="http://www.w3.org/2000/svg">
<path d="M13.0832 11.9303C12.5455 12.2887 12.1871 12.6472 11.4702 13.0056C9.67802 13.9017 7.88576 14.4394 6.27276 15.5147C3.04677 17.6654 3.04673 20.3537 6.45194 22.1459C9.85715 23.9381 13.4416 25.1927 17.2052 25.9096C21.865 26.8057 26.5248 27.1641 31.3638 27.7018C33.3352 27.881 35.3067 27.7018 37.4574 27.7018C37.4574 26.268 37.6366 24.8343 37.6366 23.042C39.7872 25.5511 41.5794 27.7018 43.5509 29.8525C41.9379 31.4655 39.9664 33.4369 37.6366 35.946C37.6366 34.1538 37.4574 32.8992 37.4574 31.6447C32.26 31.2862 27.0625 30.9278 22.0443 30.3901C16.1299 29.6732 10.3948 28.5979 5.01819 25.7304C2.6883 24.4758 0 23.042 0 19.9953C0 16.7693 2.6883 15.3355 5.01819 14.0809C7.34807 12.8264 9.85724 12.1095 12.3663 11.0342C12.7248 11.3926 12.9039 11.7511 13.0832 11.9303Z" fill="#FEC536"/>
<path d="M46.956 30.7485C46.5976 27.1641 46.5975 27.3433 49.4651 26.8056C54.1248 25.7303 58.7846 24.4757 63.2652 23.042C65.2366 22.5043 67.2081 21.0705 67.2081 18.7406C67.2081 16.4108 65.0574 15.5147 63.4444 14.6185C62.1899 13.9017 60.9353 13.5432 59.6807 13.0055C59.1431 12.8263 58.7847 12.2887 58.6054 11.5718C62.9068 12.4679 66.8496 13.5432 70.0756 16.7692C72.047 18.7406 72.047 21.0705 70.0756 23.042C69.0002 24.1173 67.7457 25.0134 66.312 25.7303C60.3976 28.7771 53.7664 29.8524 46.956 30.7485Z" fill="#FEC536"/>
<path d="M59.1432 0.63916C57.351 0.63916 55.9172 2.07293 55.9172 3.86515C55.9172 5.65737 57.351 7.09114 59.1432 7.09114C60.9354 7.09114 62.3692 5.65737 62.3692 3.86515C62.3692 2.07293 60.9354 0.63916 59.1432 0.63916ZM59.1432 5.1197C58.4263 5.1197 57.7095 4.58204 57.7095 3.68593C57.7095 2.96904 58.2471 2.25216 59.1432 2.25216C59.8601 2.25216 60.577 2.78982 60.577 3.68593C60.577 4.58204 59.8601 5.1197 59.1432 5.1197Z" fill="#FEC536"/>
<path d="M27.0626 14.2597C27.0626 17.3065 24.7328 19.6364 21.5068 19.6364C18.46 19.6364 16.1301 17.4857 16.1301 14.4389H18.8185C18.9977 16.0519 20.073 17.1272 21.686 17.1272C23.299 17.1272 24.5536 15.8727 24.5536 14.0805C24.5536 12.2883 23.299 11.2129 21.3276 11.2129H19.3561V10.6753L22.7614 5.47783H16.6678V3.14795H26.7043V3.68561L23.1198 9.24149C25.2705 9.77915 27.0626 11.7506 27.0626 14.2597Z" fill="#FEC536"/>
<path d="M41.2212 14.0805C41.2212 17.3065 38.7121 19.8156 35.3069 19.8156C31.7224 19.8156 29.3926 17.4857 29.3926 14.0805C29.3926 12.6467 29.9302 10.8545 31.1848 8.70385L34.4108 2.96875H37.2783C35.3068 6.37396 34.59 7.80774 33.8731 9.06229C34.59 8.88307 35.1276 8.70385 35.8445 8.70385C38.7121 8.70385 41.2212 10.8545 41.2212 14.0805ZM38.5328 14.0805C38.5328 12.1091 37.0991 10.8545 35.3069 10.8545C33.3354 10.8545 32.0809 12.1091 32.0809 14.0805C32.0809 15.8727 33.5147 17.3065 35.3069 17.3065C37.0991 17.3065 38.5328 15.8727 38.5328 14.0805Z" fill="#FEC536"/>
<path d="M43.0132 11.213C43.0132 6.01554 45.5222 2.78955 49.4651 2.78955C53.408 2.78955 55.9172 6.01554 55.9172 11.213C55.9172 16.4104 53.408 19.6364 49.4651 19.6364C45.5222 19.6364 43.0132 16.4104 43.0132 11.213ZM53.2288 11.213C53.2288 7.44931 51.795 5.29865 49.4651 5.29865C47.1352 5.29865 45.7015 7.44931 45.7015 11.213C45.7015 14.9766 47.1352 17.1273 49.4651 17.1273C51.795 17.3065 53.2288 14.9766 53.2288 11.213Z" fill="#FEC536"/>
</svg>
