<svg width="96" height="96" viewBox="0 0 96 96" fill="none" xmlns="http://www.w3.org/2000/svg">
<path d="M91.7932 47.8573C93.4809 59.5179 85.3963 70.3388 73.7357 72.0265C62.0751 73.7142 51.2542 65.6296 49.5665 53.969C47.8788 42.3085 55.9634 31.4876 67.624 29.7998C79.2845 28.1121 90.1054 36.1967 91.7932 47.8573Z" fill="#021024" fill-opacity="0.1"/>
<path d="M87.6433 47.1105C89.1201 57.3135 82.0461 66.7818 71.8431 68.2586C61.6401 69.7353 52.1718 62.6613 50.695 52.4583C49.2183 42.2553 56.2923 32.787 66.4953 31.3102C76.6983 29.8335 86.1666 36.9075 87.6433 47.1105Z" fill="#FFCF23"/>
<path fill-rule="evenodd" clip-rule="evenodd" d="M90.2825 46.7286C91.9703 58.3892 83.8857 69.2101 72.2251 70.8978C60.5645 72.5856 49.7436 64.501 48.0559 52.8404C46.3682 41.1798 54.4528 30.3589 66.1133 28.6712C77.7739 26.9835 88.5948 35.0681 90.2825 46.7286ZM71.8431 68.2587C82.0461 66.7819 89.1201 57.3136 87.6434 47.1106C86.1666 36.9076 76.6983 29.8336 66.4953 31.3103C56.2923 32.7871 49.2183 42.2554 50.695 52.4584C52.1718 62.6614 61.6401 69.7354 71.8431 68.2587Z" fill="#B96F00"/>
<path fill-rule="evenodd" clip-rule="evenodd" d="M67.0683 35.2691C59.0517 36.4294 53.4935 43.8687 54.6538 51.8854C55.8141 59.902 63.2535 65.4602 71.2701 64.2999C79.2868 63.1396 84.8449 55.7002 83.6846 47.6836C82.5243 39.6669 75.0849 34.1088 67.0683 35.2691ZM52.0146 52.2674C50.6434 42.7932 57.2121 34.0012 66.6863 32.6299C76.1605 31.2586 84.9525 37.8274 86.3238 47.3016C87.6951 56.7758 81.1263 65.5678 71.6521 66.9391C62.1779 68.3103 53.3859 61.7416 52.0146 52.2674Z" fill="#F9B300"/>
<path fill-rule="evenodd" clip-rule="evenodd" d="M67.4503 37.9084C60.8912 38.8577 56.3436 44.9445 57.2929 51.5035C57.3984 52.2323 56.8931 52.9086 56.1643 53.0141C55.4356 53.1196 54.7593 52.6143 54.6538 51.8855C53.4935 43.8689 59.0516 36.4295 67.0683 35.2692C67.7971 35.1637 68.4734 35.669 68.5788 36.3978C68.6843 37.1266 68.179 37.8029 67.4503 37.9084Z" fill="#FFE792"/>
<path fill-rule="evenodd" clip-rule="evenodd" d="M61.9635 38.483C62.4197 39.061 62.321 39.8995 61.7429 40.3557C60.9486 40.9827 60.2385 41.7064 59.6283 42.5064C59.1817 43.0919 58.345 43.2046 57.7595 42.758C57.174 42.3114 57.0614 41.4747 57.508 40.8892C58.2527 39.9128 59.1198 39.0289 60.0908 38.2625C60.6688 37.8062 61.5072 37.905 61.9635 38.483Z" fill="#FFF8DF"/>
<path d="M81.983 45.2354C82.0885 45.9642 81.5832 46.6405 80.8544 46.746C80.1256 46.8515 79.4493 46.3462 79.3438 45.6174C79.2383 44.8886 79.7436 44.2123 80.4724 44.1069C81.2012 44.0014 81.8775 44.5067 81.983 45.2354Z" fill="#F9B300"/>
<path d="M85.3862 50.1317C85.4917 50.8605 84.9864 51.5368 84.2576 51.6423C83.5288 51.7477 82.8525 51.2425 82.747 50.5137C82.6415 49.7849 83.1468 49.1086 83.8756 49.0031C84.6044 48.8976 85.2807 49.4029 85.3862 50.1317Z" fill="#F9B300"/>
<path d="M83.5109 55.7921C83.6164 56.5209 83.1111 57.1972 82.3824 57.3027C81.6536 57.4081 80.9773 56.9029 80.8718 56.1741C80.7663 55.4453 81.2716 54.769 82.0004 54.6635C82.7292 54.558 83.4055 55.0633 83.5109 55.7921Z" fill="#F9B300"/>
<path d="M77.486 60.7057C77.5915 61.4345 77.0862 62.1108 76.3575 62.2162C75.6287 62.3217 74.9524 61.8164 74.8469 61.0877C74.7414 60.3589 75.2467 59.6826 75.9755 59.5771C76.7043 59.4716 77.3806 59.9769 77.486 60.7057Z" fill="#F9B300"/>
<path d="M73.9093 63.9178C74.0147 64.6466 73.5095 65.3229 72.7807 65.4284C72.0519 65.5339 71.3756 65.0286 71.2701 64.2998C71.1646 63.571 71.6699 62.8947 72.3987 62.7892C73.1275 62.6838 73.8038 63.189 73.9093 63.9178Z" fill="#F9B300"/>
<path d="M81.6184 52.0243C81.7238 52.7531 81.2186 53.4294 80.4898 53.5348C79.761 53.6403 79.0847 53.135 78.9792 52.4063C78.8737 51.6775 79.379 51.0012 80.1078 50.8957C80.8366 50.7902 81.5129 51.2955 81.6184 52.0243Z" fill="#F9B300"/>
<path d="M78.4062 48.4476C78.5117 49.1764 78.0064 49.8527 77.2776 49.9582C76.5488 50.0637 75.8725 49.5584 75.767 48.8296C75.6616 48.1008 76.1668 47.4245 76.8956 47.319C77.6244 47.2135 78.3007 47.7188 78.4062 48.4476Z" fill="#F9B300"/>
<path d="M79.5522 56.3651C79.6577 57.0939 79.1524 57.7702 78.4236 57.8757C77.6948 57.9811 77.0185 57.4759 76.913 56.7471C76.8076 56.0183 77.3128 55.342 78.0416 55.2365C78.7704 55.131 79.4467 55.6363 79.5522 56.3651Z" fill="#F9B300"/>
<path d="M63.0335 43.3891L65.2121 58.4406L62.4801 58.836L60.7627 46.9701L57.3172 48.6897L56.9979 46.4835L62.7243 43.4339L63.0335 43.3891Z" fill="#B96F00"/>
<path d="M78.9289 47.4773L79.2945 50.003C79.4616 51.1577 79.4875 52.1608 79.3722 53.0125C79.2569 53.8642 79.0171 54.583 78.6529 55.169C78.2876 55.7482 77.817 56.2057 77.2412 56.5417C76.6643 56.8707 76.0013 57.0895 75.2522 57.1979C74.6542 57.2845 74.0866 57.2894 73.5492 57.2129C73.0109 57.1294 72.5122 56.956 72.0531 56.6926C71.5998 56.4214 71.1886 56.0529 70.8195 55.5871C70.4572 55.1203 70.1458 54.5444 69.8853 53.8594C69.6316 53.1733 69.4381 52.3699 69.3048 51.4489L68.9393 48.9231C68.7721 47.7685 68.7467 46.7688 68.863 45.924C68.9862 45.0782 69.2304 44.3657 69.5957 43.7866C69.9609 43.2074 70.4325 42.7568 71.0103 42.4346C71.5872 42.1055 72.2502 41.8867 72.9993 41.7783C73.6041 41.6908 74.1718 41.6858 74.7023 41.7634C75.2396 41.84 75.7344 42.0104 76.1867 42.2748C76.6448 42.5312 77.055 42.8929 77.4172 43.3597C77.7785 43.8196 78.086 44.3926 78.3397 45.0786C78.5992 45.7568 78.7956 46.5563 78.9289 47.4773ZM76.6266 50.7681L76.1521 47.4897C76.0685 46.9124 75.9615 46.4157 75.8311 45.9995C75.7066 45.5755 75.5606 45.2212 75.3931 44.9367C75.2256 44.6522 75.0357 44.4306 74.8233 44.2719C74.6098 44.1063 74.3764 43.9963 74.1229 43.9417C73.8694 43.8872 73.5984 43.8808 73.3097 43.9226C72.9523 43.9743 72.6432 44.0928 72.3823 44.2779C72.1204 44.4561 71.9151 44.7104 71.7664 45.0406C71.6178 45.3709 71.5282 45.7943 71.4977 46.311C71.4731 46.8197 71.5125 47.4315 71.616 48.1463L72.0905 51.4246C72.174 52.0019 72.2781 52.5026 72.4026 52.9266C72.534 53.3497 72.6839 53.7069 72.8524 53.9983C73.0278 54.2886 73.2192 54.5206 73.4268 54.694C73.6402 54.8596 73.8741 54.9731 74.1286 55.0345C74.3821 55.089 74.6532 55.0954 74.9418 55.0536C75.3061 55.0009 75.6152 54.8825 75.8692 54.6983C76.1301 54.5132 76.3344 54.2521 76.4821 53.915C76.6288 53.571 76.7139 53.1412 76.7375 52.6255C76.767 52.102 76.73 51.4829 76.6266 50.7681Z" fill="#B96F00"/>
<path d="M60.3672 60.8591C63.4167 72.2397 56.6629 83.9376 45.2823 86.987C33.9017 90.0364 22.2038 83.2827 19.1544 71.9021C16.105 60.5215 22.8587 48.8236 34.2394 45.7742C45.62 42.7248 57.3178 49.4785 60.3672 60.8591Z" fill="#021024" fill-opacity="0.1"/>
<path d="M56.1585 60.6063C58.8268 70.5644 52.9172 80.8 42.9592 83.4682C33.0011 86.1365 22.7655 80.2269 20.0973 70.2689C17.429 60.3109 23.3386 50.0752 33.2966 47.407C43.2546 44.7387 53.4903 50.6483 56.1585 60.6063Z" fill="#CEDAEA"/>
<path fill-rule="evenodd" clip-rule="evenodd" d="M58.7343 59.9163C61.7837 71.2969 55.03 82.9947 43.6494 86.0441C32.2688 89.0936 20.5709 82.3398 17.5215 70.9592C14.472 59.5786 21.2258 47.8807 32.6064 44.8313C43.987 41.7819 55.6849 48.5356 58.7343 59.9163ZM42.9592 83.4683C52.9172 80.8001 58.8268 70.5645 56.1585 60.6064C53.4903 50.6484 43.2546 44.7389 33.2966 47.4071C23.3386 50.0754 17.429 60.311 20.0973 70.269C22.7655 80.2271 33.0011 86.1366 42.9592 83.4683Z" fill="#6A7788"/>
<path fill-rule="evenodd" clip-rule="evenodd" d="M34.3318 51.2708C26.5077 53.3672 21.8644 61.4095 23.9609 69.2337C26.0574 77.0579 34.0997 81.7011 41.9238 79.6046C49.748 77.5081 54.3912 69.4658 52.2947 61.6417C50.1983 53.8175 42.156 49.1743 34.3318 51.2708ZM21.3851 69.9239C18.9075 60.6771 24.3949 51.1726 33.6416 48.695C42.8884 46.2173 52.3929 51.7047 54.8706 60.9515C57.3482 70.1982 51.8608 79.7027 42.614 82.1804C33.3673 84.658 23.8628 79.1706 21.3851 69.9239Z" fill="#ACB7C5"/>
<path fill-rule="evenodd" clip-rule="evenodd" d="M35.022 53.8467C28.6204 55.562 24.8214 62.142 26.5367 68.5436C26.7273 69.2549 26.3052 69.986 25.5939 70.1766C24.8826 70.3672 24.1515 69.9451 23.9609 69.2338C21.8644 61.4096 26.5077 53.3674 34.3318 51.2709C35.0431 51.0803 35.7742 51.5024 35.9648 52.2137C36.1554 52.925 35.7333 53.6561 35.022 53.8467Z" fill="#E2EFFF"/>
<path fill-rule="evenodd" clip-rule="evenodd" d="M29.6411 55.0636C30.1622 55.5839 30.1629 56.4281 29.6427 56.9493C28.9277 57.6654 28.3078 58.4678 27.7961 59.3341C27.4216 59.9681 26.604 60.1785 25.97 59.804C25.3359 59.4295 25.1256 58.6119 25.5001 57.9779C26.1246 56.9205 26.8815 55.9406 27.7555 55.0652C28.2758 54.5441 29.12 54.5434 29.6411 55.0636Z" fill="#FEFFFF"/>
<path d="M50.3168 59.4109C50.5074 60.1222 50.0852 60.8534 49.374 61.0439C48.6627 61.2345 47.9316 60.8124 47.741 60.1011C47.5504 59.3898 47.9725 58.6587 48.6838 58.4681C49.3951 58.2776 50.1262 58.6997 50.3168 59.4109Z" fill="#ACB7C5"/>
<path d="M54.2729 63.8724C54.4635 64.5837 54.0414 65.3148 53.3301 65.5054C52.6188 65.696 51.8877 65.2738 51.6971 64.5626C51.5066 63.8513 51.9287 63.1202 52.64 62.9296C53.3512 62.739 54.0824 63.1611 54.2729 63.8724Z" fill="#ACB7C5"/>
<path d="M53.0775 69.7142C53.2681 70.4255 52.846 71.1566 52.1347 71.3472C51.4234 71.5378 50.6923 71.1156 50.5017 70.4044C50.3111 69.6931 50.7332 68.962 51.4445 68.7714C52.1558 68.5808 52.8869 69.0029 53.0775 69.7142Z" fill="#ACB7C5"/>
<path d="M47.6732 75.3033C47.8638 76.0146 47.4417 76.7457 46.7304 76.9363C46.0191 77.1269 45.288 76.7048 45.0974 75.9935C44.9068 75.2822 45.3289 74.5511 46.0402 74.3605C46.7515 74.1699 47.4826 74.592 47.6732 75.3033Z" fill="#ACB7C5"/>
<path d="M44.4998 78.9144C44.6903 79.6257 44.2682 80.3568 43.5569 80.5474C42.8457 80.7379 42.1145 80.3158 41.9239 79.6046C41.7334 78.8933 42.1555 78.1621 42.8668 77.9716C43.578 77.781 44.3092 78.2031 44.4998 78.9144Z" fill="#ACB7C5"/>
<path d="M50.7543 66.1956C50.9449 66.9069 50.5227 67.638 49.8115 67.8286C49.1002 68.0192 48.3691 67.5971 48.1785 66.8858C47.9879 66.1745 48.41 65.4434 49.1213 65.2528C49.8326 65.0622 50.5637 65.4843 50.7543 66.1956Z" fill="#ACB7C5"/>
<path d="M47.1432 63.022C47.3338 63.7333 46.9117 64.4644 46.2004 64.655C45.4891 64.8456 44.758 64.4235 44.5674 63.7122C44.3768 63.0009 44.7989 62.2698 45.5102 62.0792C46.2215 61.8886 46.9526 62.3107 47.1432 63.022Z" fill="#ACB7C5"/>
<path d="M49.2137 70.7493C49.4043 71.4606 48.9822 72.1917 48.2709 72.3823C47.5596 72.5729 46.8285 72.1508 46.6379 71.4395C46.4473 70.7282 46.8695 69.9971 47.5807 69.8065C48.292 69.6159 49.0232 70.038 49.2137 70.7493Z" fill="#ACB7C5"/>
<path d="M35.6453 67.1598L33.3848 67.2155L32.2182 59.6018L40.2776 57.4422L40.8681 59.6458L35.0122 61.2148L35.5465 64.7383C35.7202 64.5551 35.988 64.3468 36.3496 64.1133C36.7161 63.8713 37.1509 63.6829 37.654 63.5481C38.3516 63.3612 39.006 63.308 39.6171 63.3887C40.2265 63.4627 40.7789 63.6598 41.2745 63.9799C41.7768 64.2983 42.207 64.7366 42.5651 65.2949C42.9281 65.8446 43.212 66.5019 43.4169 67.2666C43.5967 67.9374 43.665 68.5948 43.6219 69.2391C43.5838 69.8748 43.4246 70.4746 43.1443 71.0386C42.8623 71.5958 42.4511 72.0871 41.9108 72.5122C41.3687 72.9307 40.6851 73.2504 39.86 73.4715C39.2362 73.6387 38.6116 73.709 37.9862 73.6824C37.3657 73.6474 36.7797 73.5132 36.2283 73.2799C35.6752 73.0399 35.191 72.6952 34.7757 72.2456C34.3672 71.7943 34.0588 71.2335 33.8504 70.5632L36.4765 69.8596C36.6439 70.2964 36.8671 70.6464 37.1461 70.9095C37.4251 71.1727 37.7447 71.3459 38.1049 71.4291C38.4718 71.5105 38.8666 71.4946 39.2892 71.3814C39.6715 71.2789 39.9813 71.1204 40.2186 70.9059C40.4608 70.6828 40.6374 70.4162 40.7484 70.1061C40.8594 69.7959 40.9109 69.4514 40.9028 69.0725C40.8948 68.6937 40.8341 68.2929 40.7209 67.8703C40.6113 67.4612 40.4612 67.1024 40.2707 66.7939C40.0784 66.4788 39.8451 66.225 39.5706 66.0325C39.2962 65.84 38.9834 65.719 38.6321 65.6693C38.2876 65.6178 37.9074 65.6478 37.4916 65.7592C36.9348 65.9084 36.528 66.1073 36.2711 66.3559C36.0208 66.6026 35.8123 66.8706 35.6453 67.1598Z" fill="#6A7788"/>
<path d="M51.1947 34.7289C48.6216 46.2266 37.2149 53.4613 25.7172 50.8881C14.2196 48.3149 6.98486 36.9083 9.55803 25.4106C12.1312 13.913 23.5379 6.67825 35.0355 9.25142C46.5332 11.8246 53.7679 23.2312 51.1947 34.7289Z" fill="#021024" fill-opacity="0.1"/>
<path d="M47.5824 32.5541C45.3309 42.6146 35.3501 48.9449 25.2896 46.6934C15.2292 44.4419 8.89879 34.4611 11.1503 24.4006C13.4018 14.3402 23.3827 8.00979 33.4431 10.2613C43.5036 12.5128 49.8339 22.4937 47.5824 32.5541Z" fill="#EAA683"/>
<path fill-rule="evenodd" clip-rule="evenodd" d="M50.1847 33.1366C47.6115 44.6343 36.2049 51.869 24.7072 49.2958C13.2096 46.7227 5.97485 35.316 8.54802 23.8183C11.1212 12.3207 22.5278 5.08597 34.0255 7.65913C45.5232 10.2323 52.7579 21.639 50.1847 33.1366ZM25.2896 46.6935C35.3501 48.9451 45.3309 42.6147 47.5824 32.5542C49.8339 22.4938 43.5036 12.513 33.4431 10.2614C23.3827 8.00991 13.4018 14.3403 11.1503 24.4007C8.89879 34.4612 15.2292 44.442 25.2896 46.6935Z" fill="#A35530"/>
<path fill-rule="evenodd" clip-rule="evenodd" d="M32.5696 14.1649C24.6649 12.3959 16.8229 17.3698 15.0538 25.2744C13.2848 33.179 18.2586 41.0211 26.1633 42.7902C34.0679 44.5592 41.91 39.5853 43.679 31.6807C45.4481 23.7761 40.4742 15.934 32.5696 14.1649ZM12.4515 24.692C14.5422 15.3502 23.8101 9.47195 33.152 11.5626C42.4938 13.6533 48.372 22.9213 46.2813 32.2631C44.1906 41.6049 34.9227 47.4832 25.5809 45.3925C16.239 43.3018 10.3608 34.0339 12.4515 24.692Z" fill="#D8754B"/>
<path fill-rule="evenodd" clip-rule="evenodd" d="M31.9872 16.7671C25.5197 15.3197 19.1035 19.3892 17.6561 25.8567C17.4953 26.5753 16.7824 27.0274 16.0638 26.8666C15.3452 26.7058 14.893 25.9929 15.0538 25.2743C16.8229 17.3696 24.6649 12.3958 32.5696 14.1648C33.2882 14.3256 33.7403 15.0386 33.5795 15.7572C33.4187 16.4758 32.7058 16.9279 31.9872 16.7671Z" fill="#FFC4A7"/>
<path fill-rule="evenodd" clip-rule="evenodd" d="M26.6552 15.3512C26.8758 16.0537 26.4851 16.8021 25.7825 17.0227C24.817 17.3259 23.8959 17.7495 23.0409 18.28C22.4151 18.6682 21.5932 18.4756 21.2049 17.8499C20.8167 17.2241 21.0093 16.4022 21.635 16.014C22.6785 15.3666 23.8034 14.8491 24.9836 14.4785C25.6862 14.2579 26.4345 14.6486 26.6552 15.3512Z" fill="#FFE9DF"/>
<path d="M42.9603 28.7871C42.7994 29.5057 42.0865 29.9579 41.3679 29.7971C40.6493 29.6362 40.1972 28.9233 40.358 28.2047C40.5188 27.4861 41.2317 27.0339 41.9503 27.1948C42.6689 27.3556 43.1211 28.0685 42.9603 28.7871Z" fill="#D8754B"/>
<path d="M44.3978 34.574C44.2369 35.2926 43.524 35.7447 42.8054 35.5839C42.0868 35.4231 41.6347 34.7102 41.7955 33.9916C41.9563 33.273 42.6692 32.8208 43.3878 32.9816C44.1064 33.1424 44.5586 33.8554 44.3978 34.574Z" fill="#D8754B"/>
<path d="M40.6307 39.1963C40.4699 39.9149 39.7569 40.3671 39.0383 40.2062C38.3197 40.0454 37.8676 39.3325 38.0284 38.6139C38.1892 37.8953 38.9021 37.4431 39.6207 37.6039C40.3393 37.7648 40.7915 38.4777 40.6307 39.1963Z" fill="#D8754B"/>
<path d="M33.2514 41.6438C33.0906 42.3624 32.3777 42.8146 31.6591 42.6537C30.9405 42.4929 30.4883 41.78 30.6491 41.0614C30.8099 40.3428 31.5229 39.8906 32.2415 40.0514C32.9601 40.2123 33.4122 40.9252 33.2514 41.6438Z" fill="#D8754B"/>
<path d="M28.7656 43.3723C28.6047 44.0909 27.8918 44.5431 27.1732 44.3823C26.4546 44.2214 26.0024 43.5085 26.1633 42.7899C26.3241 42.0713 27.037 41.6191 27.7556 41.78C28.4742 41.9408 28.9264 42.6537 28.7656 43.3723Z" fill="#D8754B"/>
<path d="M40.2032 35.0017C40.0424 35.7203 39.3294 36.1725 38.6108 36.0117C37.8922 35.8508 37.4401 35.1379 37.6009 34.4193C37.7617 33.7007 38.4746 33.2485 39.1932 33.4094C39.9118 33.5702 40.364 34.2831 40.2032 35.0017Z" fill="#D8754B"/>
<path d="M38.4744 30.5159C38.3136 31.2345 37.6007 31.6866 36.8821 31.5258C36.1635 31.365 35.7113 30.6521 35.8721 29.9335C36.033 29.2149 36.7459 28.7627 37.4645 28.9235C38.1831 29.0843 38.6352 29.7973 38.4744 30.5159Z" fill="#D8754B"/>
<path d="M36.7272 38.3227C36.5664 39.0414 35.8535 39.4935 35.1349 39.3327C34.4163 39.1719 33.9641 38.459 34.1249 37.7404C34.2858 37.0218 34.9987 36.5696 35.7173 36.7304C36.4359 36.8912 36.8881 37.6041 36.7272 38.3227Z" fill="#D8754B"/>
<path d="M32.4146 21.773L29.0931 36.6142L26.3994 36.0113L29.0179 24.3111L25.186 24.6918L25.6728 22.5164L32.1096 21.7047L32.4146 21.773Z" fill="#A35530"/>
</svg>
