<svg width="462" height="344" viewBox="0 0 462 344" fill="none" xmlns="http://www.w3.org/2000/svg">
<path d="M461.671 302.302H0V302.533H461.671V302.302Z" fill="#E0E0E0"/>
<path d="M396.778 314.361H370.564V314.592H396.778V314.361Z" fill="#E0E0E0"/>
<path d="M363.796 314.472H340.371V314.703H363.796V314.472Z" fill="#E0E0E0"/>
<path d="M255.414 309.125H223.882V309.356H255.414V309.125Z" fill="#E0E0E0"/>
<path d="M314.877 316.281H271.056V316.512H314.877V316.281Z" fill="#E0E0E0"/>
<path d="M131.89 308.858H89.4629V309.089H131.89V308.858Z" fill="#E0E0E0"/>
<path d="M151.428 308.858H137.015V309.089H151.428V308.858Z" fill="#E0E0E0"/>
<path d="M94.7994 313.013H57.6719V313.244H94.7994V313.013Z" fill="#E0E0E0"/>
<path d="M218.832 261.121H40.5443C39.1476 261.118 37.8089 260.562 36.8222 259.573C35.8355 258.585 35.2812 257.245 35.2813 255.849V5.22611C35.2934 3.83743 35.853 2.50962 36.8384 1.5311C37.8238 0.552581 39.1556 0.00237889 40.5443 0H218.832C220.231 0 221.572 0.555471 222.56 1.54421C223.549 2.53296 224.105 3.87398 224.105 5.27228V255.849C224.105 257.247 223.549 258.588 222.56 259.577C221.572 260.565 220.231 261.121 218.832 261.121ZM40.5443 0.184669C39.2088 0.187115 37.9289 0.719343 36.9854 1.66453C36.042 2.60972 35.5121 3.89064 35.5121 5.22611V255.849C35.5121 257.184 36.042 258.465 36.9854 259.41C37.9289 260.355 39.2088 260.888 40.5443 260.89H218.832C220.169 260.888 221.45 260.356 222.394 259.411C223.339 258.466 223.871 257.185 223.874 255.849V5.22611C223.871 3.88979 223.339 2.60889 222.394 1.66397C221.45 0.719043 220.169 0.18711 218.832 0.184669H40.5443Z" fill="#E0E0E0"/>
<path d="M418.56 261.121H240.263C238.865 261.118 237.525 260.562 236.537 259.574C235.549 258.586 234.993 257.246 234.99 255.849V5.22611C235.005 3.83659 235.566 2.50879 236.553 1.53052C237.54 0.552258 238.873 0.00235294 240.263 0H418.56C419.947 0.00480553 421.276 0.556082 422.26 1.53434C423.243 2.5126 423.801 3.83902 423.814 5.22611V255.849C423.814 257.244 423.261 258.582 422.276 259.57C421.291 260.558 419.955 261.116 418.56 261.121ZM240.263 0.184669C238.926 0.18711 237.645 0.719043 236.7 1.66397C235.755 2.60889 235.224 3.88979 235.221 5.22611V255.849C235.224 257.185 235.755 258.466 236.7 259.411C237.645 260.356 238.926 260.888 240.263 260.89H418.56C419.896 260.888 421.177 260.356 422.122 259.411C423.067 258.466 423.599 257.185 423.601 255.849V5.22611C423.599 3.88979 423.067 2.60889 422.122 1.66397C421.177 0.719043 419.896 0.18711 418.56 0.184669H240.263Z" fill="#E0E0E0"/>
<path d="M303.188 22.4097H65.8896V142.038H303.188V22.4097Z" fill="#E0E0E0"/>
<path d="M306.281 22.4097H68.9824V142.038H306.281V22.4097Z" fill="#F0F0F0"/>
<path d="M300.732 136.414V28.0142L74.5415 28.0142V136.414H300.732Z" fill="#F5F5F5"/>
<path d="M91.291 136.424L152.638 28.0234H181.381L120.044 136.424H91.291Z" fill="white"/>
<path d="M129.692 136.424L191.039 28.0234H219.783L158.445 136.424H129.692Z" fill="white"/>
<path d="M209.599 136.424L270.936 28.0234H282.773L221.436 136.424H209.599Z" fill="white"/>
<path d="M227.096 136.414V28.0142H218.73V136.414H227.096Z" fill="#E0E0E0"/>
<path d="M150.366 136.414V28.0142H142.001V136.414H150.366Z" fill="#E0E0E0"/>
<path d="M230.032 139.988V23.8501H221.667V139.988H230.032Z" fill="#F5F5F5"/>
<path d="M153.303 139.988V23.8501H144.937V139.988H153.303Z" fill="#F5F5F5"/>
<path d="M300.732 136.414V28.0142H298.396V136.414H300.732Z" fill="#E0E0E0"/>
<path d="M361.803 177.356C361.803 177.356 344.869 148.169 368.358 124.938C368.358 124.938 374.489 128.926 374.397 134.3C374.305 139.674 367.832 141.031 369.217 145.519C370.602 150.006 376.724 154.401 372.716 158.104C368.709 161.807 373.354 165.112 373.086 169.646C372.818 174.179 361.803 177.356 361.803 177.356Z" fill="#E0E0E0"/>
<path d="M364.462 182.129C364.462 182.129 371.322 149.092 341.701 134.448C341.701 134.448 337.149 140.172 338.931 145.242C340.713 150.311 347.288 149.563 347.38 154.253C347.472 158.944 343.059 165.047 348.035 167.3C353.012 169.553 349.633 174.151 351.323 178.38C353.012 182.609 364.462 182.129 364.462 182.129Z" fill="#EBEBEB"/>
<path d="M349.383 173.736C349.383 173.736 349.678 187.512 361.072 187.512C372.466 187.512 372.771 173.736 372.771 173.736H349.383Z" fill="#F5F5F5"/>
<path d="M270.317 176.783C270.317 176.783 270.705 187.512 285.691 187.512C300.677 187.512 301.074 176.783 301.074 176.783H270.317Z" fill="#EBEBEB"/>
<path d="M305.1 179.442C305.1 179.442 305.395 187.512 316.66 187.512C327.925 187.512 328.211 179.442 328.211 179.442H305.1Z" fill="#EBEBEB"/>
<path d="M280.871 194.207H255.646V295.377H280.871V194.207Z" fill="#EBEBEB"/>
<path d="M384.876 295.368H260.483V302.302H384.876V295.368Z" fill="#EBEBEB"/>
<path d="M280.871 295.368H389.724V194.197H280.871V295.368Z" fill="#F5F5F5"/>
<path d="M290.788 239.866H379.808V203.985H290.788V239.866Z" fill="#EBEBEB"/>
<path d="M290.788 282.284H379.808V246.403H290.788V282.284Z" fill="#EBEBEB"/>
<path d="M345.329 207.918H325.302C324.65 207.918 324.024 207.66 323.562 207.199C323.1 206.739 322.839 206.114 322.837 205.462C322.839 204.809 323.1 204.183 323.562 203.721C324.023 203.26 324.649 202.999 325.302 202.997H345.329C345.983 202.999 346.608 203.26 347.07 203.721C347.532 204.183 347.792 204.809 347.795 205.462C347.792 206.114 347.532 206.739 347.069 207.199C346.607 207.66 345.982 207.918 345.329 207.918Z" fill="#F5F5F5"/>
<path d="M345.329 250.336H325.302C324.65 250.336 324.024 250.078 323.562 249.618C323.1 249.157 322.839 248.533 322.837 247.88C322.839 247.227 323.1 246.602 323.562 246.14C324.023 245.678 324.649 245.417 325.302 245.415H345.329C345.983 245.417 346.608 245.678 347.07 246.14C347.532 246.602 347.792 247.227 347.795 247.88C347.792 248.533 347.532 249.157 347.069 249.618C346.607 250.078 345.982 250.336 345.329 250.336Z" fill="#F5F5F5"/>
<path d="M393.076 187.512H280.862V194.206H393.076V187.512Z" fill="#EBEBEB"/>
<path d="M252.109 194.197H280.862V187.503H252.109V194.197Z" fill="#E0E0E0"/>
<path d="M387.453 39.2515H332.81V102.205H387.453V39.2515Z" fill="#EBEBEB"/>
<path d="M393.657 39.2515H334.443V102.205H393.657V39.2515Z" fill="#F5F5F5"/>
<path d="M388.699 97.237V44.2095H339.402V97.237H388.699Z" fill="white"/>
<path d="M376.751 80.0352V61.4114C376.751 59.0096 374.804 57.0625 372.402 57.0625H355.699C353.297 57.0625 351.35 59.0096 351.35 61.4114V80.0352C351.35 82.4371 353.297 84.3842 355.699 84.3842H372.402C374.804 84.3842 376.751 82.4371 376.751 80.0352Z" fill="#F5F5F5"/>
<path d="M248.462 243.688H242.119V302.302H248.462V243.688Z" fill="#E0E0E0"/>
<path opacity="0.5" d="M248.461 243.688H245.285V302.302H248.461V243.688Z" fill="#F5F5F5"/>
<path d="M220.678 260.105H216.32C216.798 259.701 217.181 259.197 217.444 258.63C217.707 258.062 217.844 257.444 217.844 256.818H166.201C166.203 257.445 166.342 258.063 166.606 258.63C166.871 259.198 167.256 259.701 167.734 260.105H163.431C161.889 260.105 160.409 260.718 159.318 261.809C158.227 262.9 157.614 264.38 157.614 265.922V282.884C157.614 284.427 158.227 285.907 159.318 286.998C160.409 288.088 161.889 288.701 163.431 288.701H220.678C222.221 288.701 223.701 288.088 224.792 286.998C225.883 285.907 226.496 284.427 226.496 282.884V265.922C226.496 264.38 225.883 262.9 224.792 261.809C223.701 260.718 222.221 260.105 220.678 260.105Z" fill="#F5F5F5"/>
<path d="M172.914 272.635H138.187C136.025 272.635 134.272 274.388 134.272 276.55V284.786C134.272 286.949 136.025 288.701 138.187 288.701H172.914C175.076 288.701 176.829 286.949 176.829 284.786V276.55C176.829 274.388 175.076 272.635 172.914 272.635Z" fill="#EBEBEB"/>
<path d="M175.518 269.089H135.584C134.859 269.089 134.272 269.676 134.272 270.401V271.896C134.272 272.62 134.859 273.207 135.584 273.207H175.518C176.242 273.207 176.829 272.62 176.829 271.896V270.401C176.829 269.676 176.242 269.089 175.518 269.089Z" fill="#E0E0E0"/>
<path d="M180.753 217.512C180.753 217.512 181.353 236.902 204.067 236.902C226.782 236.902 227.382 217.512 227.382 217.512H180.753Z" fill="#EBEBEB"/>
<path d="M71.1983 243.688H99.5264V236.911H71.1983V243.688Z" fill="#E0E0E0"/>
<path d="M270.447 236.911H99.5361V243.688H270.447V236.911Z" fill="#F5F5F5"/>
<path d="M71.1983 295.479H99.5264V288.701H71.1983V295.479Z" fill="#E0E0E0"/>
<path d="M77.5514 243.688H71.208V302.302H77.5514V243.688Z" fill="#E0E0E0"/>
<path opacity="0.5" d="M77.5513 243.688H74.375V302.302H77.5513V243.688Z" fill="#F5F5F5"/>
<path d="M102.704 243.688H96.3604V302.302H102.704V243.688Z" fill="#F5F5F5"/>
<path d="M99.5366 243.688H96.3604V302.302H99.5366V243.688Z" fill="#E0E0E0"/>
<path d="M270.438 243.688H264.095V302.302H270.438V243.688Z" fill="#F5F5F5"/>
<path d="M267.271 243.688H264.095V302.302H267.271V243.688Z" fill="#E0E0E0"/>
<path d="M270.447 288.701H99.5361V295.478H270.447V288.701Z" fill="#F5F5F5"/>
<path d="M145.112 232.913H110.653V236.911H145.112V232.913Z" fill="#E0E0E0"/>
<path d="M145.112 236.902H157.457V232.904H145.112V236.902Z" fill="#EBEBEB"/>
<path d="M230.835 344C329.709 344 409.862 339.321 409.862 333.548C409.862 327.775 329.709 323.096 230.835 323.096C131.962 323.096 51.8086 327.775 51.8086 333.548C51.8086 339.321 131.962 344 230.835 344Z" fill="#F5F5F5"/>
<path d="M201.168 88.3634C201.232 99.305 193.393 99.1942 193.55 95.7963C193.707 92.3984 191.768 84.2638 193.55 85.0486C195.332 85.8335 201.14 83.5251 201.168 88.3634Z" fill="#263238"/>
<path d="M196.237 108.179C197.318 108.095 199.488 109.102 199.681 111.955C199.732 112.784 199.974 113.59 200.389 114.309C200.804 115.029 201.381 115.642 202.073 116.101C202.073 116.101 198.481 116.535 196.127 114.67C194.206 113.165 193.357 109.868 194.363 109.13C194.915 108.685 195.553 108.361 196.237 108.179Z" fill="#263238"/>
<path d="M194.824 100.404C196.671 102.038 198.36 106.359 194.196 108.409C190.032 110.459 183.485 105.685 183.485 105.685L190.678 102.352L194.824 100.404Z" fill="#263238"/>
<path d="M196.874 108.576C196.773 107.977 196.606 107.392 196.376 106.831C196.356 106.777 196.324 106.729 196.283 106.689C196.242 106.65 196.193 106.62 196.139 106.602C196.085 106.585 196.027 106.579 195.971 106.587C195.914 106.594 195.86 106.615 195.813 106.646L193.255 108.354C193.203 108.389 193.161 108.435 193.132 108.49C193.103 108.545 193.088 108.606 193.088 108.668C193.088 108.73 193.103 108.791 193.132 108.846C193.161 108.901 193.203 108.947 193.255 108.982C193.623 109.252 194.019 109.481 194.437 109.665C195.037 109.905 196.283 109.222 196.708 108.927C196.767 108.89 196.813 108.838 196.843 108.775C196.872 108.713 196.883 108.644 196.874 108.576Z" fill="#407BFF"/>
<path opacity="0.3" d="M196.874 108.576C196.773 107.977 196.606 107.392 196.376 106.831C196.356 106.777 196.324 106.729 196.283 106.689C196.242 106.65 196.193 106.62 196.139 106.602C196.085 106.585 196.027 106.579 195.971 106.587C195.914 106.594 195.86 106.615 195.813 106.646L193.255 108.354C193.203 108.389 193.161 108.435 193.132 108.49C193.103 108.545 193.088 108.606 193.088 108.668C193.088 108.73 193.103 108.791 193.132 108.846C193.161 108.901 193.203 108.947 193.255 108.982C193.623 109.252 194.019 109.481 194.437 109.665C195.037 109.905 196.283 109.222 196.708 108.927C196.767 108.89 196.813 108.838 196.843 108.775C196.872 108.713 196.883 108.644 196.874 108.576Z" fill="black"/>
<path d="M169.349 104.042C168.324 103.701 165.979 104.162 165.111 106.895C164.865 107.688 164.438 108.414 163.865 109.014C163.291 109.615 162.586 110.075 161.806 110.358C161.806 110.358 165.194 111.632 167.927 110.358C170.143 109.351 171.713 106.341 170.947 105.381C170.517 104.825 169.972 104.368 169.349 104.042Z" fill="#263238"/>
<path d="M179.525 85.252C175.785 86.2676 170.753 90.6997 172.988 96.1381C170.781 97.6432 167.956 101.974 171.261 104.744C174.816 107.726 183.56 103.543 183.56 103.543L183.625 102.121L184.668 91.5399L179.525 85.252Z" fill="#263238"/>
<path d="M168.639 104.282C168.887 103.723 169.197 103.194 169.562 102.703C169.598 102.659 169.644 102.623 169.696 102.598C169.748 102.574 169.805 102.561 169.862 102.561C169.92 102.561 169.976 102.574 170.028 102.598C170.08 102.623 170.126 102.659 170.162 102.703L172.23 104.965C172.272 105.011 172.302 105.067 172.318 105.127C172.334 105.187 172.335 105.25 172.322 105.311C172.308 105.371 172.28 105.428 172.24 105.475C172.2 105.523 172.149 105.56 172.092 105.584C171.672 105.755 171.236 105.882 170.79 105.963C170.144 106.055 169.147 105.104 168.759 104.716C168.696 104.665 168.651 104.596 168.629 104.518C168.608 104.441 168.611 104.358 168.639 104.282Z" fill="#407BFF"/>
<path opacity="0.3" d="M168.639 104.282C168.887 103.723 169.197 103.194 169.562 102.703C169.598 102.659 169.644 102.623 169.696 102.598C169.748 102.574 169.805 102.561 169.862 102.561C169.92 102.561 169.976 102.574 170.028 102.598C170.08 102.623 170.126 102.659 170.162 102.703L172.23 104.965C172.272 105.011 172.302 105.067 172.318 105.127C172.334 105.187 172.335 105.25 172.322 105.311C172.308 105.371 172.28 105.428 172.24 105.475C172.2 105.523 172.149 105.56 172.092 105.584C171.672 105.755 171.236 105.882 170.79 105.963C170.144 106.055 169.147 105.104 168.759 104.716C168.696 104.665 168.651 104.596 168.629 104.518C168.608 104.441 168.611 104.358 168.639 104.282Z" fill="black"/>
<path d="M202.285 123.792C204.049 125.159 205.978 126.618 207.917 127.948C209.857 129.277 211.805 130.616 213.808 131.844C215.812 133.072 217.843 134.217 219.893 135.307L221.435 136.091L223.005 136.821C223.522 137.07 224.048 137.292 224.584 137.495L225.369 137.818C225.636 137.92 225.923 138.049 226.089 138.095C227.054 138.391 228.042 138.604 229.044 138.732C230.133 138.889 231.278 139 232.441 139.083C234.759 139.231 237.141 139.295 239.533 139.305C241.924 139.314 244.343 139.305 246.753 139.231C249.163 139.157 251.601 139.101 254.001 139.028L254.454 142.656C249.604 143.634 244.707 144.359 239.782 144.826C237.298 145.048 234.805 145.214 232.257 145.232C230.983 145.232 229.69 145.232 228.36 145.112C226.931 145.028 225.513 144.796 224.131 144.42C223.707 144.309 223.439 144.198 223.125 144.097L222.202 143.774C221.583 143.57 220.974 143.349 220.355 143.1L218.564 142.379L216.809 141.604C214.491 140.558 212.232 139.387 210.041 138.095C207.862 136.812 205.72 135.482 203.652 134.06C201.583 132.638 199.589 131.17 197.558 129.443L202.285 123.792Z" fill="#E4897B"/>
<path d="M192.701 119.646C195 117.855 204.464 123.718 207.345 126.165L205.249 138.843C205.249 138.843 191.63 133.136 190.808 129.24C189.958 125.168 190.965 121.013 192.701 119.646Z" fill="#263238"/>
<path d="M252.995 139.341L258.702 134.918L259.154 141.76C259.154 141.76 255.221 144.198 252.626 142.684L252.995 139.341Z" fill="#E4897B"/>
<path d="M263.789 134.245L266.706 137.495L259.116 141.761L258.664 134.919L263.789 134.245Z" fill="#E4897B"/>
<path d="M155.379 324.527L162.572 325.062L165.194 308.507L158.01 307.971L155.379 324.527Z" fill="#E4897B"/>
<path d="M104.494 301.388L110.597 305.229L121.465 292.339L115.362 288.489L104.494 301.388Z" fill="#E4897B"/>
<path d="M112.527 303.853L106.812 298.101C106.714 298 106.583 297.939 106.444 297.929C106.304 297.919 106.166 297.96 106.054 298.045L100.856 301.932C100.729 302.035 100.625 302.163 100.551 302.308C100.477 302.453 100.434 302.612 100.425 302.775C100.417 302.938 100.442 303.101 100.501 303.253C100.559 303.405 100.649 303.544 100.764 303.659C102.786 305.626 103.866 306.475 106.378 309.005C107.92 310.566 110.016 312.994 112.148 315.145C114.281 317.297 116.516 315.293 115.842 314.222C112.721 309.356 113.284 307.537 113.072 305.063C113.04 304.607 112.847 304.178 112.527 303.853Z" fill="#263238"/>
<path d="M163.052 324.028H154.945C154.803 324.028 154.665 324.077 154.555 324.169C154.445 324.26 154.371 324.386 154.345 324.526L153.062 330.934C153.032 331.097 153.04 331.264 153.084 331.423C153.128 331.582 153.208 331.729 153.318 331.852C153.427 331.976 153.563 332.073 153.715 332.136C153.868 332.2 154.033 332.228 154.197 332.218C157.023 332.172 158.399 332.006 161.963 332.006C164.151 332.006 170.273 332.227 173.329 332.227C176.385 332.227 176.69 329.235 175.443 328.968C169.857 327.749 166.09 326.078 164.271 324.471C163.935 324.175 163.5 324.017 163.052 324.028Z" fill="#263238"/>
<path d="M165.195 308.507L163.736 317.703L156.645 316.512L158.002 307.98L165.195 308.507Z" fill="#CE6F64"/>
<path d="M115.362 288.498L121.465 292.339L116.968 297.676L110.727 293.992L115.362 288.498Z" fill="#CE6F64"/>
<path d="M160.846 158.011L189.599 163.616C204.455 123.386 201.223 122.065 201.223 122.065C199.134 120.917 196.975 119.9 194.76 119.018L194.372 118.871C192.526 118.197 192.156 118.095 189.7 117.375C185.471 116.368 181.529 115.528 176.644 114.836L175.721 114.706C174.797 114.596 173.957 114.503 173.108 114.42C172.535 114.356 171.963 114.319 171.418 114.282L169.571 114.18C166.413 114.023 164.151 114.069 164.151 114.069C165.028 139.193 163.606 146.405 160.846 158.011Z" fill="#263238"/>
<path d="M180.799 100.404C180.799 104.762 180.125 112.62 176.635 114.854C176.635 114.854 176.958 119.342 184.76 120.856C193.347 122.527 189.691 117.393 189.691 117.393C185.231 115.362 185.997 111.909 187.475 108.806L180.799 100.404Z" fill="#E4897B"/>
<path d="M183.522 103.83L187.474 108.806C187.128 109.526 186.844 110.273 186.625 111.041C184.88 110.431 182.802 107.994 182.932 106.083C182.99 105.302 183.191 104.539 183.522 103.83Z" fill="#CE6F64"/>
<path d="M180.383 90.3952C179.46 97.4957 178.896 100.478 181.74 104.772C186.015 111.235 194.935 110.82 197.973 104.144C200.743 98.1328 201.777 87.5237 195.452 83.4148C194.063 82.4977 192.463 81.9508 190.804 81.8262C189.145 81.7016 187.481 82.0034 185.971 82.7028C184.461 83.4023 183.155 84.4762 182.177 85.8226C181.199 87.169 180.581 88.743 180.383 90.3952Z" fill="#E4897B"/>
<path d="M203.495 79.1487C203.624 80.2747 203.539 81.415 203.246 82.5097C203.178 82.1384 203.089 81.7715 202.978 81.4109C200.448 73.0454 189.054 75.0398 185.619 78.6409C180.079 77.0527 174.807 78.3177 175.508 85.1043C175.596 86.8527 176.225 88.5307 177.309 89.9056C176.45 92.2879 177.309 96.0828 180.144 96.1936C184.132 96.3506 187.918 91.0691 189.442 88.1698C192.212 88.6407 196.2 89.0931 199.229 88.3544C199.737 88.6591 200.152 88.8715 200.152 88.8715C203.375 87.1448 205.831 85.4736 203.495 79.1487Z" fill="#263238"/>
<path d="M177.927 95.2427C177.814 96.6205 178.248 97.9873 179.136 99.0468C180.337 100.441 181.906 99.6193 182.47 97.9665C182.941 96.4707 182.876 93.95 181.269 93.1652C180.915 92.9988 180.525 92.9236 180.135 92.9464C179.744 92.9692 179.366 93.0893 179.034 93.2958C178.701 93.5023 178.426 93.7886 178.233 94.1286C178.039 94.4686 177.934 94.8516 177.927 95.2427Z" fill="#E4897B"/>
<path d="M189.164 163.616C189.164 163.616 189.275 220.697 184.602 242.192C179.746 264.555 165.462 315.432 165.462 315.432L155.12 314.093C155.12 314.093 163.218 262.7 166.662 240.475C170.42 216.255 168.121 159.516 168.121 159.516L189.164 163.616Z" fill="#407BFF"/>
<path opacity="0.3" d="M189.164 163.616C189.164 163.616 189.275 220.697 184.602 242.192C179.746 264.555 165.462 315.432 165.462 315.432L155.12 314.093C155.12 314.093 163.218 262.7 166.662 240.475C170.42 216.255 168.121 159.516 168.121 159.516L189.164 163.616Z" fill="black"/>
<path d="M167.225 316.327L153.348 314.536L153.939 309.624L169.691 311.471L167.225 316.327Z" fill="#263238"/>
<path d="M182.008 162.139C182.008 162.139 166.524 209.312 158.832 236.486C150.725 265.156 119.646 296.863 119.646 296.863L110.735 291.711C110.735 291.711 131.972 261.61 139.774 234.861C155.665 180.559 149.137 169.054 160.845 158.011L182.008 162.139Z" fill="#407BFF"/>
<path opacity="0.3" d="M182.008 162.139C182.008 162.139 166.524 209.312 158.832 236.486C150.725 265.156 119.646 296.863 119.646 296.863L110.735 291.711C110.735 291.711 131.972 261.61 139.774 234.861C155.665 180.559 149.137 169.054 160.845 158.011L182.008 162.139Z" fill="black"/>
<path d="M121.096 298.295L108.714 291.148L111.798 286.734L125.546 294.315L121.096 298.295Z" fill="#263238"/>
<path d="M190.633 94.43C190.522 95.0025 190.734 95.5196 191.113 95.5935C191.492 95.6673 191.879 95.261 192.036 94.6701C192.193 94.0792 191.935 93.5713 191.556 93.4975C191.178 93.4236 190.744 93.8576 190.633 94.43Z" fill="#263238"/>
<path d="M197.087 95.6856C196.976 96.2581 197.189 96.7844 197.567 96.8583C197.946 96.9321 198.333 96.5259 198.444 95.9349C198.555 95.344 198.343 94.8362 197.964 94.7715C197.586 94.7069 197.198 95.1039 197.087 95.6856Z" fill="#263238"/>
<path d="M197.798 94.7807L199.247 94.6606C199.247 94.6606 198.333 95.5932 197.798 94.7807Z" fill="#263238"/>
<path d="M195.194 96.3413C195.449 97.7412 195.896 99.0992 196.524 100.376C196.193 100.531 195.832 100.612 195.466 100.612C195.101 100.612 194.74 100.531 194.409 100.376L195.194 96.3413Z" fill="#DE5753"/>
<path d="M191.989 102.223C191.218 102.097 190.488 101.785 189.863 101.316C189.237 100.846 188.735 100.233 188.398 99.5267C188.389 99.5062 188.384 99.484 188.384 99.4616C188.384 99.4391 188.388 99.4169 188.397 99.3962C188.405 99.3755 188.418 99.3568 188.434 99.3411C188.45 99.3254 188.469 99.3132 188.49 99.3051C188.532 99.2895 188.578 99.2903 188.619 99.3074C188.66 99.3246 188.693 99.3568 188.712 99.3974C189.034 100.046 189.505 100.61 190.085 101.043C190.666 101.476 191.34 101.766 192.054 101.89C192.076 101.894 192.097 101.902 192.116 101.913C192.135 101.925 192.151 101.94 192.164 101.958C192.177 101.976 192.186 101.997 192.191 102.018C192.196 102.04 192.197 102.063 192.193 102.084C192.184 102.129 192.157 102.169 192.119 102.195C192.081 102.221 192.035 102.231 191.989 102.223Z" fill="#263238"/>
<path d="M189.164 91.9739C189.096 91.9733 189.029 91.9523 188.973 91.9136C188.917 91.8748 188.873 91.8201 188.849 91.7565C188.824 91.6929 188.819 91.6233 188.834 91.5567C188.849 91.4902 188.883 91.4296 188.933 91.3829C189.329 91.0117 189.808 90.7401 190.33 90.5908C190.852 90.4415 191.402 90.4186 191.934 90.5242C192.021 90.55 192.095 90.6088 192.14 90.688C192.185 90.7673 192.197 90.8608 192.174 90.9489C192.15 91.0355 192.093 91.1093 192.016 91.1542C191.938 91.1991 191.846 91.2116 191.759 91.189C191.336 91.114 190.901 91.1384 190.489 91.2602C190.078 91.382 189.7 91.5978 189.386 91.8908C189.325 91.9447 189.246 91.9743 189.164 91.9739Z" fill="#263238"/>
<path d="M200.67 93.2575C200.602 93.2583 200.536 93.2384 200.479 93.2004C200.423 93.1625 200.38 93.1083 200.356 93.0451C200.197 92.6451 199.948 92.2875 199.627 92.0007C199.307 91.7138 198.924 91.5055 198.509 91.3923C198.465 91.3845 198.422 91.3681 198.384 91.3439C198.347 91.3197 198.314 91.2882 198.288 91.2513C198.262 91.2144 198.244 91.1728 198.234 91.1289C198.225 91.085 198.224 91.0396 198.232 90.9953C198.252 90.908 198.304 90.8313 198.377 90.7801C198.45 90.7289 198.54 90.7069 198.629 90.7183C199.156 90.8498 199.643 91.1053 200.051 91.4635C200.459 91.8216 200.776 92.2721 200.974 92.7773C200.992 92.8191 201.002 92.8641 201.003 92.9096C201.003 92.9551 200.994 93.0003 200.977 93.0424C200.96 93.0846 200.935 93.1229 200.902 93.155C200.87 93.1872 200.832 93.2126 200.79 93.2298L200.67 93.2575Z" fill="#263238"/>
<path d="M191.408 99.4899C191.122 99.491 190.84 99.4257 190.583 99.2991C190.327 99.1725 190.103 98.9881 189.93 98.7605C189.496 98.0832 189.206 97.3236 189.079 96.5292C188.952 95.7348 188.99 94.9227 189.192 94.1438C189.718 91.226 191.546 88.853 193.273 88.853C193.56 88.8565 193.843 88.9247 194.101 89.0526C194.358 89.1804 194.583 89.3647 194.759 89.5917C195.192 90.2696 195.481 91.0292 195.608 91.8234C195.735 92.6175 195.698 93.4293 195.498 94.2084C194.972 97.1262 193.134 99.4899 191.408 99.4899ZM193.254 89.1116C191.639 89.1116 189.903 91.4015 189.395 94.2084C189.072 96.0551 189.33 97.7171 190.087 98.6128C190.241 98.8121 190.438 98.9738 190.664 99.0858C190.889 99.1978 191.137 99.257 191.389 99.2591C193.014 99.2591 194.741 96.9784 195.249 94.1715H195.36H195.249C195.445 93.4294 195.484 92.6548 195.365 91.8966C195.246 91.1384 194.971 90.4133 194.556 89.7671C194.405 89.569 194.211 89.4073 193.989 89.2939C193.767 89.1805 193.522 89.1182 193.273 89.1116H193.254Z" fill="#FAFAFA"/>
<path d="M198.582 100.413C198.284 100.407 197.99 100.334 197.723 100.2C197.457 100.066 197.223 99.8735 197.04 99.6374C196.626 99.0158 196.345 98.3146 196.216 97.5786C196.088 96.8426 196.113 96.0878 196.292 95.3624C196.763 92.6477 198.536 90.4502 200.244 90.4502C200.543 90.4575 200.837 90.5318 201.104 90.6676C201.371 90.8034 201.604 90.9973 201.786 91.235C202.198 91.8562 202.477 92.5558 202.606 93.2898C202.734 94.0239 202.71 94.7766 202.534 95.5009C202.072 98.2247 200.3 100.413 198.582 100.413ZM200.216 90.681C198.61 90.681 196.948 92.7955 196.523 95.4085C196.357 96.1008 196.333 96.8197 196.454 97.5213C196.575 98.2229 196.837 98.8927 197.225 99.4897C197.387 99.699 197.594 99.8697 197.83 99.9894C198.067 100.109 198.327 100.175 198.591 100.182C200.198 100.182 201.869 98.077 202.285 95.4639C202.45 94.7721 202.474 94.054 202.355 93.3527C202.236 92.6514 201.977 91.9813 201.592 91.3828C201.431 91.1718 201.224 90.9993 200.988 90.878C200.752 90.7566 200.491 90.6893 200.226 90.681H200.216Z" fill="#FAFAFA"/>
<path d="M114.651 307.205C113.728 307.205 112.758 305.783 112.259 304.961C112.241 304.934 112.231 304.902 112.231 304.869C112.231 304.836 112.241 304.804 112.259 304.776C112.28 304.75 112.307 304.729 112.337 304.716C112.368 304.703 112.402 304.699 112.435 304.702C112.73 304.767 115.27 305.321 115.593 306.189C115.629 306.285 115.639 306.389 115.622 306.489C115.604 306.59 115.559 306.684 115.491 306.762C115.4 306.901 115.275 307.014 115.128 307.092C114.981 307.169 114.817 307.208 114.651 307.205ZM112.721 305.127C113.432 306.198 114.125 306.835 114.623 306.863C114.734 306.864 114.843 306.836 114.94 306.783C115.037 306.73 115.119 306.652 115.177 306.558C115.208 306.526 115.229 306.485 115.238 306.441C115.246 306.396 115.241 306.351 115.223 306.309C115.057 305.847 113.737 305.386 112.721 305.127Z" fill="#407BFF"/>
<path d="M113.136 305.128C112.856 305.132 112.577 305.101 112.305 305.035C112.277 305.026 112.252 305.01 112.231 304.989C112.211 304.968 112.195 304.943 112.185 304.915C112.164 304.862 112.164 304.802 112.185 304.749C112.25 304.694 113.662 303.299 114.706 303.299H114.78C114.909 303.308 115.035 303.344 115.149 303.404C115.264 303.464 115.365 303.548 115.445 303.65C115.539 303.749 115.597 303.876 115.61 304.011C115.624 304.147 115.591 304.283 115.518 304.398C115.223 304.897 114.041 305.128 113.136 305.128ZM112.721 304.767C113.589 304.869 114.992 304.62 115.278 304.204C115.324 304.14 115.361 304.038 115.223 303.863C115.175 303.795 115.111 303.739 115.037 303.701C114.963 303.662 114.881 303.642 114.798 303.641C114.006 303.793 113.28 304.186 112.721 304.767Z" fill="#407BFF"/>
<path d="M165.702 325.293C164.938 325.272 164.177 325.179 163.431 325.016C163.395 325.009 163.363 324.991 163.338 324.964C163.313 324.938 163.297 324.904 163.292 324.868C163.288 324.833 163.295 324.798 163.311 324.766C163.328 324.735 163.353 324.71 163.385 324.693C163.726 324.527 166.69 323.049 167.549 323.548C167.627 323.597 167.692 323.665 167.737 323.746C167.782 323.827 167.806 323.917 167.807 324.01C167.818 324.166 167.791 324.322 167.728 324.465C167.665 324.608 167.569 324.734 167.447 324.832C166.933 325.176 166.319 325.338 165.702 325.293ZM164.012 324.795C165.591 325.053 166.782 324.989 167.244 324.591C167.323 324.523 167.385 324.438 167.425 324.342C167.465 324.245 167.482 324.141 167.475 324.037C167.477 324.003 167.469 323.968 167.453 323.937C167.437 323.906 167.412 323.88 167.383 323.862C166.921 323.594 165.277 324.222 164.012 324.795Z" fill="#407BFF"/>
<path d="M163.476 325.016C163.443 325.026 163.408 325.026 163.375 325.016C163.348 324.999 163.326 324.974 163.313 324.944C163.3 324.915 163.296 324.882 163.301 324.85C163.301 324.721 163.744 321.785 165.351 321.785H165.489C165.951 321.831 166.08 322.062 166.108 322.256C166.237 323.068 164.446 324.638 163.541 325.026L163.476 325.016ZM165.323 322.099C164.28 322.099 163.818 323.798 163.661 324.536C164.584 323.991 165.812 322.763 165.739 322.274C165.739 322.274 165.739 322.126 165.415 322.099H165.323Z" fill="#407BFF"/>
<path d="M191.344 93.5253L192.793 93.396C192.793 93.396 191.879 94.3378 191.344 93.5253Z" fill="#263238"/>
<path d="M185 126.996C172.996 122.444 169.247 115.63 169.534 114.199L171.38 114.31H171.694C172.137 114.31 172.618 114.374 173.07 114.43C173.919 114.503 174.797 114.596 175.683 114.716L176.606 114.845C181.013 115.379 185.377 116.227 189.662 117.384C191.62 117.957 192.266 118.141 193.356 118.529L194.325 118.88L194.713 119.028C195.673 121.096 195.461 125.325 185 126.996Z" fill="#E4897B"/>
<path d="M185 126.996C172.996 122.444 169.247 115.63 169.534 114.199L171.38 114.31H171.694C174.132 117.772 179.469 122.555 184.907 123.211C189.284 122.287 193.411 121.235 193.374 118.529L194.344 118.88L194.732 119.028C195.673 121.096 195.461 125.325 185 126.996Z" fill="#407BFF"/>
<path opacity="0.3" d="M185 126.996C172.996 122.444 169.247 115.63 169.534 114.199L171.38 114.31H171.694C174.132 117.772 179.469 122.555 184.907 123.211C189.284 122.287 193.411 121.235 193.374 118.529L194.344 118.88L194.732 119.028C195.673 121.096 195.461 125.325 185 126.996Z" fill="black"/>
<path d="M160.743 156.238L158.897 158.565C158.758 158.741 158.961 158.99 159.294 159.055L189.45 164.927C189.709 164.982 189.949 164.927 189.995 164.733L190.752 162.212C190.807 162.037 190.613 161.843 190.327 161.788L161.205 156.118C161.124 156.101 161.04 156.103 160.96 156.124C160.88 156.145 160.806 156.184 160.743 156.238Z" fill="#263238"/>
<path d="M164.022 160.255L163.246 160.107C163.089 160.107 162.988 159.978 163.015 159.877L164.031 156.608C164.031 156.506 164.216 156.46 164.363 156.488L165.148 156.636C165.305 156.636 165.407 156.774 165.379 156.866L164.363 160.144C164.326 160.198 164.273 160.238 164.211 160.258C164.15 160.278 164.083 160.277 164.022 160.255Z" fill="#407BFF"/>
<path opacity="0.3" d="M164.022 160.255L163.246 160.107C163.089 160.107 162.988 159.978 163.015 159.877L164.031 156.608C164.031 156.506 164.216 156.46 164.363 156.488L165.148 156.636C165.305 156.636 165.407 156.774 165.379 156.866L164.363 160.144C164.326 160.198 164.273 160.238 164.211 160.258C164.15 160.278 164.083 160.277 164.022 160.255Z" fill="black"/>
<path d="M166.072 125.214C165.721 127.403 165.388 129.831 165.148 132.102C164.908 134.374 164.696 136.719 164.585 139.083C164.524 140.246 164.487 141.41 164.474 142.573C164.474 143.727 164.474 144.881 164.474 146.036C164.52 148.297 164.696 150.553 165.001 152.794C165.175 153.562 165.488 154.291 165.924 154.946C166.477 155.845 167.094 156.703 167.771 157.513C169.247 159.264 170.825 160.925 172.498 162.489C174.188 164.115 175.961 165.684 177.78 167.217C179.599 168.75 181.473 170.273 183.32 171.741L181.335 174.807C176.989 172.425 172.834 169.712 168.906 166.691C166.879 165.138 164.965 163.44 163.182 161.612C162.231 160.632 161.357 159.579 160.569 158.464C159.593 157.144 158.899 155.639 158.528 154.041L158.186 152.083C158.066 151.446 157.983 150.809 157.909 150.181C157.725 148.907 157.623 147.642 157.522 146.377C157.33 143.861 157.271 141.337 157.346 138.815C157.42 136.313 157.559 133.82 157.808 131.336C158.057 128.852 158.371 126.415 158.87 123.848L166.072 125.214Z" fill="#E4897B"/>
<path d="M159.94 115.999C155.988 119.194 156.93 128.686 156.93 128.686L170.226 133.062C170.226 133.062 169.617 122.121 168.971 118.187C168.176 113.506 163.818 112.851 159.94 115.999Z" fill="#263238"/>
<path d="M181.695 171.151L187.705 168.916L186.782 174.632C186.782 174.632 182.424 176.201 180.189 174.188L181.695 171.151Z" fill="#E4897B"/>
<path d="M194.861 169.765V174.179L186.782 174.632L187.706 168.916L194.861 169.765Z" fill="#E4897B"/>
<path d="M187.243 164.78L186.468 164.632C186.311 164.632 186.209 164.503 186.237 164.401L187.253 161.132C187.253 161.031 187.437 160.985 187.594 161.012L188.37 161.16C188.527 161.16 188.628 161.299 188.601 161.391L187.585 164.669C187.557 164.761 187.437 164.816 187.243 164.78Z" fill="#407BFF"/>
<path opacity="0.3" d="M187.243 164.78L186.468 164.632C186.311 164.632 186.209 164.503 186.237 164.401L187.253 161.132C187.253 161.031 187.437 160.985 187.594 161.012L188.37 161.16C188.527 161.16 188.628 161.299 188.601 161.391L187.585 164.669C187.557 164.761 187.437 164.816 187.243 164.78Z" fill="black"/>
<path d="M175.637 162.508L174.852 162.36C174.695 162.36 174.594 162.231 174.631 162.129L175.646 158.861C175.646 158.759 175.822 158.713 175.979 158.741L176.764 158.889C176.911 158.889 177.022 159.027 176.985 159.119L175.969 162.397C175.942 162.508 175.794 162.554 175.637 162.508Z" fill="#407BFF"/>
<path opacity="0.3" d="M175.637 162.508L174.852 162.36C174.695 162.36 174.594 162.231 174.631 162.129L175.646 158.861C175.646 158.759 175.822 158.713 175.979 158.741L176.764 158.889C176.911 158.889 177.022 159.027 176.985 159.119L175.969 162.397C175.942 162.508 175.794 162.554 175.637 162.508Z" fill="black"/>
<path d="M116.829 216.348L164.695 320.889C165.793 323.265 167.785 325.11 170.238 326.022C172.692 326.933 175.406 326.838 177.788 325.755L185.387 322.283L361.349 241.722C363.726 240.628 365.573 238.638 366.486 236.186C367.4 233.734 367.305 231.02 366.224 228.638L323.926 136.304L318.386 124.106C317.286 121.732 315.294 119.889 312.841 118.977C310.389 118.066 307.676 118.16 305.293 119.24L121.723 203.265C119.346 204.359 117.498 206.348 116.582 208.799C115.665 211.249 115.754 213.963 116.829 216.348Z" fill="#407BFF"/>
<path opacity="0.1" d="M116.829 216.348L164.695 320.889C165.793 323.265 167.785 325.11 170.238 326.022C172.692 326.933 175.406 326.838 177.788 325.755L185.387 322.283L361.349 241.722C363.726 240.628 365.573 238.638 366.486 236.186C367.4 233.734 367.305 231.02 366.224 228.638L323.926 136.304L318.386 124.106C317.286 121.732 315.294 119.889 312.841 118.977C310.389 118.066 307.676 118.16 305.293 119.24L121.723 203.265C119.346 204.359 117.498 206.348 116.582 208.799C115.665 211.249 115.754 213.963 116.829 216.348Z" fill="white"/>
<path d="M159.843 310.288L361.365 218.024L337.78 166.511L136.258 258.775L159.843 310.288Z" fill="#407BFF"/>
<path opacity="0.3" d="M159.843 310.288L361.365 218.024L337.78 166.511L136.258 258.775L159.843 310.288Z" fill="white"/>
<path d="M210.525 267.081L337.874 208.776L329.433 190.34L202.084 248.645L210.525 267.081Z" fill="#407BFF"/>
<path opacity="0.8" d="M210.525 267.081L337.874 208.776L329.433 190.34L202.084 248.645L210.525 267.081Z" fill="white"/>
<path d="M140.757 268.622L342.279 176.358L329.695 148.872L128.173 241.136L140.757 268.622Z" fill="#407BFF"/>
<path opacity="0.3" d="M140.757 268.622L342.279 176.358L329.695 148.872L128.173 241.136L140.757 268.622Z" fill="black"/>
<g style="mix-blend-mode:multiply">
<path d="M144.198 217.659L185.388 322.246L361.349 241.684C363.726 240.591 365.573 238.6 366.487 236.149C367.4 233.697 367.306 230.983 366.224 228.601L323.926 136.267L149.775 204.852C147.342 205.818 145.39 207.706 144.345 210.106C143.3 212.505 143.247 215.221 144.198 217.659Z" fill="#407BFF"/>
</g>
<path d="M377.102 184.601L376.23 184.907L377.672 189.01L378.543 188.704L377.102 184.601Z" fill="#407BFF"/>
<path opacity="0.1" d="M377.102 184.601L376.23 184.907L377.672 189.01L378.543 188.704L377.102 184.601Z" fill="white"/>
<path d="M369.825 163.968L368.954 164.274L374.632 180.444L375.503 180.138L369.825 163.968Z" fill="#407BFF"/>
<path opacity="0.1" d="M369.825 163.968L368.954 164.274L374.632 180.444L375.503 180.138L369.825 163.968Z" fill="white"/>
<path d="M156.45 205.213L346.935 138.317C349.406 137.457 352.117 137.61 354.476 138.743C356.834 139.877 358.648 141.898 359.52 144.364L397.617 252.848C398.478 255.319 398.326 258.03 397.195 260.39C396.063 262.75 394.044 264.566 391.579 265.442L201.093 332.338C198.621 333.196 195.909 333.042 193.55 331.909C191.191 330.776 189.375 328.756 188.499 326.29L150.402 217.807C149.542 215.335 149.695 212.622 150.828 210.262C151.961 207.902 153.982 206.087 156.45 205.213Z" fill="#407BFF"/>
<path opacity="0.1" d="M156.45 205.213L346.935 138.317C349.406 137.457 352.117 137.61 354.476 138.743C356.834 139.877 358.648 141.898 359.52 144.364L397.617 252.848C398.478 255.319 398.326 258.03 397.195 260.39C396.063 262.75 394.044 264.566 391.579 265.442L201.093 332.338C198.621 333.196 195.909 333.042 193.55 331.909C191.191 330.776 189.375 328.756 188.499 326.29L150.402 217.807C149.542 215.335 149.695 212.622 150.828 210.262C151.961 207.902 153.982 206.087 156.45 205.213Z" fill="white"/>
<path d="M181.557 306.508L390.676 233.07L374.103 185.878L164.984 259.316L181.557 306.508Z" fill="#407BFF"/>
<path opacity="0.3" d="M181.557 306.508L390.676 233.07L374.103 185.878L164.984 259.316L181.557 306.508Z" fill="white"/>
<path d="M308.208 184.831L351.437 169.65L349.072 162.916L305.843 178.097L308.208 184.831Z" fill="#407BFF"/>
<path opacity="0.8" d="M308.208 184.831L351.437 169.65L349.072 162.916L305.843 178.097L308.208 184.831Z" fill="white"/>
<path d="M344.589 261.079L379.271 248.9L378.035 245.38L343.353 257.56L344.589 261.079Z" fill="#407BFF"/>
<path opacity="0.8" d="M344.589 261.079L379.271 248.9L378.035 245.38L343.353 257.56L344.589 261.079Z" fill="white"/>
<path d="M336.941 271.331L381.633 255.637L380.397 252.117L335.705 267.812L336.941 271.331Z" fill="#407BFF"/>
<path opacity="0.8" d="M336.941 271.331L381.633 255.637L380.397 252.117L335.705 267.812L336.941 271.331Z" fill="white"/>
<path d="M201.354 318.947L223.7 311.1L221.042 303.53L198.696 311.377L201.354 318.947Z" fill="#407BFF"/>
<path opacity="0.8" d="M201.354 318.947L223.7 311.1L221.042 303.53L198.696 311.377L201.354 318.947Z" fill="white"/>
<path d="M340.519 238.684L366.612 229.524C367.988 229.035 369.115 228.022 369.747 226.706C370.38 225.39 370.468 223.878 369.992 222.497C369.502 221.122 368.489 219.995 367.174 219.362C365.858 218.73 364.345 218.642 362.965 219.118L336.862 228.287C335.487 228.776 334.36 229.789 333.727 231.105C333.094 232.421 333.006 233.933 333.483 235.313C333.974 236.689 334.989 237.816 336.307 238.447C337.625 239.078 339.138 239.163 340.519 238.684Z" fill="#407BFF"/>
<path d="M295.82 254.381L321.923 245.212C323.288 244.72 324.406 243.713 325.036 242.406C325.666 241.099 325.758 239.596 325.293 238.222C324.802 236.848 323.788 235.724 322.472 235.093C321.157 234.462 319.645 234.375 318.266 234.852L292.173 244.021C290.797 244.51 289.67 245.523 289.038 246.839C288.405 248.155 288.317 249.667 288.793 251.047C289.292 252.414 290.309 253.53 291.623 254.154C292.938 254.778 294.446 254.859 295.82 254.381Z" fill="#407BFF"/>
<path d="M251.148 270.077L277.251 260.909C278.613 260.413 279.726 259.404 280.353 258.098C280.979 256.791 281.069 255.291 280.603 253.919C280.111 252.545 279.098 251.42 277.782 250.789C276.466 250.158 274.955 250.072 273.576 250.549L247.455 259.681C246.081 260.172 244.956 261.186 244.325 262.501C243.694 263.817 243.608 265.328 244.084 266.707C244.575 268.09 245.595 269.221 246.919 269.853C248.243 270.485 249.764 270.566 251.148 270.077Z" fill="#407BFF"/>
<path d="M206.43 285.774L232.533 276.605C233.9 276.116 235.02 275.109 235.652 273.802C236.284 272.494 236.378 270.991 235.913 269.616C235.421 268.242 234.408 267.117 233.092 266.486C231.776 265.855 230.265 265.769 228.886 266.246L202.783 275.414C201.408 275.904 200.281 276.917 199.648 278.232C199.015 279.548 198.927 281.061 199.404 282.441C199.902 283.808 200.919 284.924 202.234 285.548C203.549 286.171 205.056 286.253 206.43 285.774Z" fill="#407BFF"/>
<g opacity="0.8">
<path opacity="0.8" d="M340.518 238.684L366.611 229.524C367.987 229.035 369.114 228.022 369.746 226.706C370.379 225.39 370.467 223.878 369.991 222.497C369.501 221.122 368.488 219.995 367.173 219.362C365.857 218.73 364.344 218.642 362.964 219.118L336.861 228.287C335.486 228.776 334.359 229.789 333.726 231.105C333.093 232.421 333.005 233.933 333.482 235.313C333.973 236.689 334.988 237.816 336.306 238.447C337.624 239.078 339.137 239.163 340.518 238.684Z" fill="white"/>
<path opacity="0.8" d="M295.819 254.381L321.922 245.212C323.287 244.72 324.405 243.713 325.035 242.406C325.665 241.099 325.758 239.596 325.292 238.222C324.801 236.848 323.787 235.724 322.471 235.093C321.156 234.462 319.644 234.375 318.265 234.852L292.172 244.021C290.796 244.51 289.67 245.523 289.037 246.839C288.404 248.155 288.316 249.667 288.792 251.047C289.291 252.414 290.308 253.53 291.622 254.154C292.937 254.778 294.445 254.859 295.819 254.381Z" fill="white"/>
<path opacity="0.8" d="M251.148 270.077L277.251 260.909C278.613 260.413 279.726 259.404 280.353 258.098C280.979 256.791 281.069 255.291 280.603 253.919C280.111 252.545 279.098 251.42 277.782 250.789C276.466 250.158 274.955 250.072 273.576 250.549L247.455 259.681C246.081 260.172 244.956 261.186 244.325 262.501C243.694 263.817 243.608 265.328 244.084 266.707C244.575 268.09 245.595 269.221 246.919 269.853C248.243 270.485 249.764 270.566 251.148 270.077Z" fill="white"/>
<path opacity="0.8" d="M206.43 285.774L232.533 276.605C233.9 276.115 235.02 275.108 235.652 273.801C236.284 272.494 236.378 270.991 235.913 269.615C235.421 268.241 234.408 267.117 233.092 266.486C231.776 265.855 230.265 265.768 228.886 266.245L202.783 275.414C201.408 275.903 200.281 276.916 199.648 278.232C199.015 279.548 198.927 281.06 199.404 282.44C199.902 283.808 200.919 284.924 202.234 285.547C203.549 286.171 205.056 286.252 206.43 285.774Z" fill="white"/>
</g>
<path d="M338.196 217.683L361.421 209.526C363.394 208.834 364.432 206.673 363.739 204.7L358.899 190.918C358.206 188.945 356.045 187.908 354.073 188.6L330.847 196.757C328.874 197.45 327.837 199.61 328.529 201.583L333.369 215.365C334.062 217.338 336.223 218.375 338.196 217.683Z" fill="#407BFF"/>
<path opacity="0.3" d="M338.196 217.683L361.421 209.526C363.394 208.834 364.432 206.673 363.739 204.7L358.899 190.918C358.206 188.945 356.045 187.908 354.073 188.6L330.847 196.757C328.874 197.45 327.837 199.61 328.529 201.583L333.369 215.365C334.062 217.338 336.223 218.375 338.196 217.683Z" fill="black"/>
<path d="M201.287 231.952C197.937 231.953 194.708 230.696 192.24 228.429C189.772 226.163 188.246 223.052 187.962 219.714C187.679 216.375 188.659 213.052 190.709 210.402C192.759 207.751 195.73 205.968 199.033 205.403C202.335 204.839 205.73 205.536 208.543 207.355C211.357 209.174 213.385 211.984 214.226 215.227C215.067 218.47 214.659 221.911 213.084 224.869C211.509 227.826 208.88 230.084 205.719 231.195C204.296 231.697 202.797 231.953 201.287 231.952ZM201.287 206.099C199.869 206.102 198.462 206.342 197.123 206.81C193.987 207.912 191.416 210.215 189.977 213.213C188.538 216.21 188.349 219.656 189.45 222.793C190.214 224.959 191.558 226.874 193.336 228.328C195.114 229.782 197.257 230.719 199.532 231.037C201.806 231.356 204.125 231.043 206.233 230.132C208.342 229.222 210.16 227.75 211.489 225.876C212.817 224.002 213.605 221.8 213.766 219.509C213.928 217.217 213.456 214.926 212.403 212.885C211.35 210.843 209.757 209.131 207.796 207.934C205.836 206.737 203.584 206.102 201.287 206.099Z" fill="#407BFF"/>
<path opacity="0.8" d="M201.287 231.952C197.937 231.953 194.708 230.696 192.24 228.429C189.772 226.163 188.246 223.052 187.962 219.714C187.679 216.375 188.659 213.052 190.709 210.402C192.759 207.751 195.73 205.968 199.033 205.403C202.335 204.839 205.73 205.536 208.543 207.355C211.357 209.174 213.385 211.984 214.226 215.227C215.067 218.47 214.659 221.911 213.084 224.869C211.509 227.826 208.88 230.084 205.719 231.195C204.296 231.697 202.797 231.953 201.287 231.952ZM201.287 206.099C199.869 206.102 198.462 206.342 197.123 206.81C193.987 207.912 191.416 210.215 189.977 213.213C188.538 216.21 188.349 219.656 189.45 222.793C190.214 224.959 191.558 226.874 193.336 228.328C195.114 229.782 197.257 230.719 199.532 231.037C201.806 231.356 204.125 231.043 206.233 230.132C208.342 229.222 210.16 227.75 211.489 225.876C212.817 224.002 213.605 221.8 213.766 219.509C213.928 217.217 213.456 214.926 212.403 212.885C211.35 210.843 209.757 209.131 207.796 207.934C205.836 206.737 203.584 206.102 201.287 206.099Z" fill="white"/>
<path d="M169.968 229.607C170.819 232.016 172.365 234.119 174.41 235.649C176.456 237.18 178.909 238.071 181.46 238.208C184.011 238.346 186.546 237.724 188.744 236.422C190.942 235.12 192.705 233.196 193.811 230.893C194.916 228.589 195.314 226.01 194.954 223.481C194.595 220.951 193.494 218.585 191.79 216.681C190.087 214.777 187.857 213.421 185.383 212.783C182.909 212.145 180.302 212.255 177.89 213.098C176.284 213.659 174.805 214.532 173.537 215.666C172.269 216.801 171.238 218.174 170.502 219.708C169.766 221.242 169.34 222.905 169.248 224.604C169.157 226.303 169.401 228.003 169.968 229.607Z" fill="#407BFF"/>
<path opacity="0.8" d="M169.968 229.607C170.819 232.016 172.365 234.119 174.41 235.649C176.456 237.18 178.909 238.071 181.46 238.208C184.011 238.346 186.546 237.724 188.744 236.422C190.942 235.12 192.705 233.196 193.811 230.893C194.916 228.589 195.314 226.01 194.954 223.481C194.595 220.951 193.494 218.585 191.79 216.681C190.087 214.777 187.857 213.421 185.383 212.783C182.909 212.145 180.302 212.255 177.89 213.098C176.284 213.659 174.805 214.532 173.537 215.666C172.269 216.801 171.238 218.174 170.502 219.708C169.766 221.242 169.34 222.905 169.248 224.604C169.157 226.303 169.401 228.003 169.968 229.607Z" fill="white"/>
</svg>
